<?xml version="1.0" encoding="utf-8"?>
<!-- Generator: Adobe Illustrator 21.1.0, SVG Export Plug-In . SVG Version: 6.00 Build 0)  -->
<svg version="1.1" id="Layer_1" xmlns="http://www.w3.org/2000/svg" xmlns:xlink="http://www.w3.org/1999/xlink" x="0px" y="0px"
	 viewBox="0 0 2500 567" style="enable-background:new 0 0 2500 567;" xml:space="preserve">
<style type="text/css">
	.st0{fill:#6C6D6D;}
	.st1{fill:url(#SVGID_1_);}
	.st2{fill:url(#SVGID_2_);}
	.st3{fill:url(#SVGID_3_);}
	.st4{fill:url(#SVGID_4_);}
	.st5{fill:url(#SVGID_5_);}
	.st6{fill:url(#SVGID_6_);}
	.st7{fill:none;stroke:#6C6D6D;stroke-width:16;}
</style>
<g>
	<path class="st0" d="M1009.7,351.2c0,42.1-11.7,74.3-35.1,96.6c-23.4,22.3-57,33.4-101,33.4h-71.3v-255h78.8
		c40.6,0,72.2,10.9,94.7,32.8C998.4,280.8,1009.7,311.6,1009.7,351.2z M965.7,352.6c0-61.1-28.6-91.6-85.7-91.6H844v185.1h29.6
		C935,446.1,965.7,414.9,965.7,352.6L965.7,352.6z M1122.9,484.7c-30,0-53.5-8.7-70.4-26.3c-16.9-17.5-25.4-41.6-25.4-72.3
		c0-31.5,7.9-56.3,23.6-74.3c15.7-18,37.3-27,64.7-27c25.5,0,45.6,7.7,60.4,23.2c14.8,15.5,22.2,36.8,22.2,63.9V394h-128.6
		c0.6,18.7,5.6,33.1,15.2,43.2c9.5,10.1,23,15.1,40.3,15.1c11.4,0,22-1.1,31.8-3.2c9.8-2.2,20.4-5.7,31.7-10.7v33.3
		c-9.6,4.7-19.8,8-30.4,10.1C1147.8,483.7,1136.1,484.7,1122.9,484.7z M1115.4,315.8c-13,0-23.5,4.1-31.3,12.4
		c-7.9,8.3-12.5,20.3-14,36.1h87.6c-0.2-15.9-4.1-28-11.5-36.2C1138.7,319.9,1128.4,315.8,1115.4,315.8L1115.4,315.8z M1267,481.2
		l-73.3-192.9h43.3l39.2,112.2c6.7,18.8,10.8,34.1,12.2,45.7h1.4c1-8.4,5.1-23.6,12.2-45.7l39.3-112.2h43.6l-73.6,192.9H1267z
		 M1477.1,484.7c-30,0-53.5-8.7-70.4-26.3c-16.9-17.5-25.4-41.6-25.4-72.3c0-31.5,7.8-56.3,23.6-74.3c15.7-18,37.3-27,64.7-27
		c25.5,0,45.6,7.7,60.4,23.2c14.8,15.5,22.2,36.8,22.2,63.9V394h-128.6c0.6,18.7,5.6,33.1,15.2,43.2c9.5,10.1,23,15.1,40.3,15.1
		c11.4,0,22-1.1,31.8-3.2c9.8-2.2,20.4-5.7,31.7-10.7v33.3c-9.6,4.6-19.8,8-30.4,10.1C1501.9,483.7,1490.2,484.7,1477.1,484.7
		L1477.1,484.7z M1469.6,315.8c-13,0-23.5,4.1-31.3,12.4c-7.8,8.3-12.5,20.3-14,36.1h87.6c-0.2-15.9-4.1-28-11.5-36.2
		C1492.8,319.9,1482.6,315.8,1469.6,315.8z M1618.2,481.2h-41V209.7h41V481.2z M1826.5,384.4c0,31.5-8.1,56.1-24.2,73.8
		c-16.2,17.7-38.7,26.5-67.5,26.5c-18,0-34-4.1-47.8-12.2c-13.8-8.1-24.5-19.8-31.9-35.1c-7.4-15.2-11.2-32.9-11.2-53
		c0-31.3,8-55.7,24.1-73.3c16-17.6,38.7-26.3,67.9-26.3c27.9,0,50,9,66.3,26.9C1818.4,329.7,1826.5,353.9,1826.5,384.4z
		 M1686.1,384.4c0,44.5,16.5,66.8,49.4,66.8c32.6,0,48.8-22.3,48.8-66.8c0-44.1-16.4-66.1-49.2-66.1c-17.2,0-29.7,5.7-37.4,17.1
		C1690,346.7,1686.1,363.1,1686.1,384.4z M1950.1,484.7c-24.4,0-43.4-8.8-56.9-26.3h-2.4c1.6,16.3,2.4,26.2,2.4,29.7v79h-41V288.2
		h33.1c0.9,3.6,2.9,12.2,5.7,25.8h2.1c12.8-19.5,32-29.3,57.6-29.3c24.1,0,42.8,8.7,56.3,26.2c13.4,17.4,20.1,41.9,20.1,73.4
		c0,31.5-6.8,56.1-20.5,73.8C1993,475.8,1974.1,484.7,1950.1,484.7L1950.1,484.7z M1940.1,318.2c-16.3,0-28.2,4.8-35.7,14.3
		c-7.5,9.5-11.3,24.8-11.3,45.7v6.1c0,23.5,3.7,40.5,11.2,51c7.4,10.5,19.6,15.8,36.5,15.8c14.2,0,25.1-5.8,32.8-17.4
		c7.7-11.6,11.5-28.2,11.5-49.7c0-21.6-3.8-38-11.4-49.1C1966.1,323.8,1954.9,318.2,1940.1,318.2L1940.1,318.2z M2137.6,484.7
		c-30,0-53.5-8.7-70.4-26.3c-16.9-17.5-25.4-41.6-25.4-72.3c0-31.5,7.8-56.3,23.6-74.3c15.7-18,37.3-27,64.7-27
		c25.5,0,45.6,7.7,60.4,23.2c14.8,15.5,22.2,36.8,22.2,63.9V394h-128.6c0.6,18.7,5.6,33.1,15.2,43.2c9.5,10.1,23,15.1,40.3,15.1
		c11.4,0,22-1.1,31.8-3.2s20.4-5.7,31.7-10.7v33.3c-9.6,4.6-19.8,8-30.4,10.1C2162.4,483.7,2150.8,484.7,2137.6,484.7z
		 M2130.1,315.8c-13,0-23.5,4.1-31.3,12.4s-12.5,20.3-14,36.1h87.6c-0.2-15.9-4.1-28-11.5-36.2
		C2153.4,319.9,2143.1,315.8,2130.1,315.8L2130.1,315.8z M2335.6,284.7c8.3,0,15.1,0.6,20.4,1.7l-4,38.2c-5.9-1.4-12-2.1-18.1-2.1
		c-16.4,0-29.7,5.4-39.9,16.1c-10.2,10.7-15.3,24.6-15.3,41.7v100.8h-41V288.2h32.1l5.4,34h2.1c6.4-11.5,14.7-20.6,25-27.4
		C2312.7,288.1,2323.8,284.7,2335.6,284.7L2335.6,284.7z M2500,426.2c0,18.8-6.9,33.3-20.6,43.3c-13.7,10.1-33.4,15.1-59,15.1
		c-25.7,0-46.3-3.9-61.9-11.7v-35.4c22.7,10.5,43.8,15.7,63.3,15.7c25.2,0,37.9-7.6,37.9-22.9c0-4.9-1.4-9-4.2-12.2
		c-2.8-3.3-7.4-6.6-13.8-10.1c-6.4-3.5-15.3-7.4-26.7-11.9c-22.2-8.6-37.2-17.2-45.1-25.8c-7.8-8.6-11.8-19.8-11.8-33.5
		c0-16.5,6.7-29.3,20-38.5c13.3-9.1,31.4-13.7,54.3-13.7c22.7,0,44.1,4.6,64.4,13.8l-13.3,30.9c-20.8-8.6-38.3-12.9-52.5-12.9
		c-21.6,0-32.4,6.2-32.4,18.5c0,6,2.8,11.2,8.5,15.4c5.7,4.2,18,9.9,36.9,17.3c15.9,6.2,27.5,11.8,34.7,16.9
		c7.2,5.1,12.6,11,16,17.7C2498.2,408.9,2500,416.9,2500,426.2L2500,426.2z"/>
</g>
<radialGradient id="SVGID_1_" cx="-280.6552" cy="973.085" r="81.933" gradientTransform="matrix(5.5688 0 0 -5.5688 2037.8185 5389.3184)" gradientUnits="userSpaceOnUse">
	<stop  offset="0" style="stop-color:#0DA960"/>
	<stop  offset="1" style="stop-color:#03914B"/>
</radialGradient>
<path class="st1" d="M566.1,369.2c6.6,11,6.8,28.3,1.1,40.2l79.2-131.9c7.1-11.8,7.1-31.1,0-42.9l-128-213.3
	C511.2,9.7,494.2,0,480.4,0H368.9c-13.7,0-19.2,9.7-12.1,21.4l79.7,132.7c0.5,0.7,1.2,1.3,1.6,1.9L566.1,369.2L566.1,369.2z"/>
<radialGradient id="SVGID_2_" cx="-277.9072" cy="921.731" r="60.773" gradientTransform="matrix(5.5688 0 0 -5.5688 2037.8185 5389.3184)" gradientUnits="userSpaceOnUse">
	<stop  offset="0" style="stop-color:#FFCD4D"/>
	<stop  offset="1" style="stop-color:#F6C338"/>
</radialGradient>
<path class="st2" d="M368.9,512.1h111.6c13.7,0,30.8-9.6,37.9-21.4l48.8-81.3c5.7-11.9,5.6-29.2-1.1-40.2l-81.2-134.5
	c7.1,11.8,7.1,31,0,42.9l-79.2,131.8c-0.4,0.9-0.6,1.9-1,2.7l-48.6,81C350.9,503.7,356.1,512.1,368.9,512.1L368.9,512.1z"/>
<linearGradient id="SVGID_3_" gradientUnits="userSpaceOnUse" x1="-258.6992" y1="909.935" x2="-284.5702" y2="909.935" gradientTransform="matrix(5.5688 0 0 -5.5688 2037.8185 5389.3184)">
	<stop  offset="0" style="stop-color:#231F20;stop-opacity:0.2"/>
	<stop  offset="1" style="stop-color:#F1F2F2;stop-opacity:0.25"/>
</linearGradient>
<path class="st3" d="M566.1,369.2l-81.2-134.5c7.1,11.8,7.1,31,0,42.9l-28.6,47.7l110.9,84.3C572.9,397.5,572.7,380.2,566.1,369.2
	L566.1,369.2z"/>
<g>
	
		<radialGradient id="SVGID_4_" cx="-376.5268" cy="1777.9401" r="81.935" gradientTransform="matrix(-5.5688 0 0 5.5688 -1920.0369 -9359.2285)" gradientUnits="userSpaceOnUse">
		<stop  offset="0" style="stop-color:#4387FD"/>
		<stop  offset="1" style="stop-color:#4683EA"/>
	</radialGradient>
	<path class="st4" d="M85.6,142.9c-6.6-11-6.8-28.3-1-40.3L5.3,234.6c-7.1,11.8-7.1,31.1,0,42.9l128.1,213.2
		c7.1,11.8,24.1,21.4,37.8,21.4h111.6c13.8,0,19.2-9.7,12.2-21.4L215.2,358c-0.4-0.7-1.2-1.3-1.6-1.9L85.6,142.9z"/>
	
		<radialGradient id="SVGID_5_" cx="-373.7789" cy="1726.5891" r="60.772" gradientTransform="matrix(-5.5688 0 0 5.5688 -1920.0369 -9359.2285)" gradientUnits="userSpaceOnUse">
		<stop  offset="0" style="stop-color:#E04A3F"/>
		<stop  offset="1" style="stop-color:#CD372D"/>
	</radialGradient>
	<path class="st5" d="M282.8,0H171.2c-13.7,0-30.8,9.6-37.8,21.4l-48.8,81.2c-5.8,11.9-5.6,29.2,1,40.3l81.3,134.6
		c-7.1-11.8-7.1-31.1,0-42.9l79.2-131.8c0.4-0.9,0.6-1.9,1.1-2.7l48.6-80.9C300.7,8.5,295.6,0,282.8,0z"/>
	
		<linearGradient id="SVGID_6_" gradientUnits="userSpaceOnUse" x1="-354.5688" y1="1714.791" x2="-380.4449" y2="1714.791" gradientTransform="matrix(-5.5688 0 0 5.5688 -1920.0369 -9359.2285)">
		<stop  offset="0" style="stop-color:#231F20;stop-opacity:0.2"/>
		<stop  offset="1" style="stop-color:#F1F2F2;stop-opacity:0.25"/>
	</linearGradient>
	<path class="st6" d="M85.6,142.9l81.3,134.6c-7.1-11.8-7.1-31.1,0-42.9l28.6-47.7L84.6,102.7C78.8,114.6,79,131.9,85.6,142.9
		L85.6,142.9z"/>
</g>
<g>
	<path class="st7" d="M928.6,80.1c2.7,32.2-21.3,60.5-53.5,63.2c-32.2,2.7-60.5-21.3-63.2-53.5c-2.7-32.2,21.3-60.5,53.5-63.2
		c18.2-1.5,36,5.5,48.2,19.1 M936.6,88.1h-60.8"/>
	<circle class="st7" cx="990.5" cy="109.9" r="36.7"/>
	<circle class="st7" cx="1089.2" cy="109.9" r="36.7"/>
	<path class="st7" d="M1190.2,146.7c-19.3,3.5-37.8-9.2-41.4-28.4s9.3-37.5,28.6-41c4.2-0.8,8.5-0.8,12.7,0 M1185.6,76.7
		c16,0,29,15.7,29,35s-13,35-29,35 M1215.5,69.8v90.7 M1214.3,146.7c5.4,16.5-3.6,34.2-20.1,39.6c-16.5,5.4-34.2-3.6-39.6-20.1"/>
	<path class="st7" d="M1245.3,21.6v132"/>
	<path class="st7" d="M1337.1,98.5c-6.2-18-25.7-27.6-43.7-21.4c-18,6.2-27.6,25.7-21.4,43.7s25.7,27.6,43.7,21.4
		c8.2-2.8,15-8.6,19.1-16.2 M1340.5,89.3l-71.1,32.1"/>
</g>
</svg>
