<svg xmlns="http://www.w3.org/2000/svg" x="0px" y="0px" width="160px" height="65px" viewBox="13.1 49.2 160 65" ><g><g><g><g><path fill="#00A3D9" d="M142.9,71.7l-0.4,0.1c-1.4,0.4-3,0.4-4.5-0.9c-1.1-0.9-1.9-2.2-2.6-3.5c-0.4-1.1-0.7-2.3-0.9-3.3c-0.9-4.4,0.8-7,2.9-7.2c1.3-0.1,3.3,0.6,3.4,4.8c0,4-0.4,7.6,1.8,9.8C142.6,71.5,142.9,71.7,142.9,71.7z"/></g><g><path fill="#00A3D9" d="M145.1,74.4c6.9-0.5,12.5-7,13.8-9.4c2.2-4.2,1.3-7-0.9-7.7c-2.2-0.6-4.6,0.8-6.3,4.8c-1.7,3.8-3.5,8.3-7.6,10.4c0,0-1.6,0.9-4.5,0.4C139.7,72.9,140.7,74.7,145.1,74.4z"/></g></g><g><g><path fill="#FF6600" d="M135.9,79.1l0.3,0.3l0.1-0.6c0.4-2.7-0.7-5.7-2.8-7.5c-0.6-0.5-1.2-0.9-1.9-1.2c-0.9-0.4-1.9-0.6-2.9-0.6c-3.4-0.2-5.6,1.3-5.5,3.5c0.1,1.3,0.8,3.7,4.7,3.7C131.1,76.6,133.8,77.1,135.9,79.1z"/></g><g><path fill="#FF6600" d="M136.7,73.8c0,0,1.5,3,0.5,6.6c-1.2,3.6-4.7,5.8-7.7,7.4c-3.1,1.6-4,4.2-3.3,5.6c0.8,1.9,3.6,2.7,6.5,1.3c2-0.9,7.9-4.9,7.2-12.5C139.1,75.5,136.7,73.8,136.7,73.8z"/></g></g><g><g><path fill="#8CC63F" d="M142.4,86.2c2-4.1,4.8-5.2,4.8-5.2c6.5-3.2,16.1,3.3,17.3,4c1.4,0.8,5.6,2,7.2-1.2c1.3-2.7-0.4-4.8-2.9-6.3c-4-2.4-17-6.9-24.2,3.3C144.6,80.7,143.1,82.8,142.4,86.2z"/></g><g><path fill="#8CC63F" d="M154.2,96.8c-1.1-1.5-7.9-6.7-7.6-13.6l0-0.4l-0.4,0.2c-2,1.4-3.8,3.7-4,5.8c-0.1,1.1-0.1,2.3,0.1,3.4c0.7,3.4,2.4,6.7,4.8,9.2c3,3,5.8,3.6,7.2,1.9C156.3,101.2,155.9,98.9,154.2,96.8z"/></g></g></g><g><g><g><path fill="#35414C" d="M19.6,96.6h-5.5V58.9h5.5V96.6z M19.8,83.3L30.1,72h6.8L26.1,83.2l11,13.4h-6.5L19.8,83.3z"/></g><g><path fill="#35414C" d="M49.8,71.5c7.4,0,12.7,5.2,12.7,12.9c0,7.6-5.3,12.8-12.7,12.8c-7.3,0-12.6-5.2-12.6-12.8C37.1,76.7,42.5,71.5,49.8,71.5z M49.8,76.2c-4.1,0-7.1,3.1-7.1,8.1c0,4.9,3,8.1,7.1,8.1c4.2,0,7.2-3.1,7.2-8.1C56.9,79.3,54,76.2,49.8,76.2z"/></g><g><path fill="#35414C" d="M67.1,73.6c3.4-1.3,7.6-2.1,11.2-2.1c6.3,0,10.3,2.4,10.3,9.3v15.8h-5.4V81.3c0-3.5-2.2-4.8-5.3-4.8c-1.9,0-3.9,0.3-5.3,0.7v19.4h-5.5L67.1,73.6L67.1,73.6z"/></g><g><path fill="#35414C" d="M103.4,91.4l6.9-19.4h5.7l-13.3,34.5h-5.4l3.4-8.9L90.5,72h5.9L103.4,91.4z"/></g></g><g><g><polygon fill="#35414C" points="111.3,94.6 111.3,94.3 113.3,94.3 113.3,94.6 112.5,94.6 112.5,96.6 112.2,96.6 112.2,94.6"/></g><g><polygon fill="#35414C" points="114.2,94.3 115,96.2 115.8,94.3 116.2,94.3 116.2,96.6 115.9,96.6 115.9,94.7 115.9,94.7 115.1,96.6 114.8,96.6 114,94.7 114,94.7 114,96.6 113.7,96.6 113.7,94.3"/></g></g></g></g></svg>
