<?xml version="1.0" encoding="utf-8"?>
<!-- Generator: Adobe Illustrator 20.1.0, SVG Export Plug-In . SVG Version: 6.00 Build 0)  -->
<svg version="1.1" id="Layer_1" xmlns="http://www.w3.org/2000/svg" xmlns:xlink="http://www.w3.org/1999/xlink" x="0px" y="0px"
	 viewBox="0 0 900 300" style="enable-background:new 0 0 900 300;" xml:space="preserve">
<style type="text/css">
	.st0{fill:#B63132;}
</style>
<image style="overflow:visible;" width="397" height="409" xlink:href="nghyd.png"  transform="matrix(0.6801 0 0 0.6801 -11 10.9194)">
</image>
<g>
	<path d="M279.4,126.3h-10.1l31.9-75.1H312l32,75.1h-10.8l-9.7-23.6h-24.9l2.7-7.9h18.9l-14-34L279.4,126.3z"/>
	<path d="M354.3,126.3V51.2h9.7l46,60.5V51.2h9.2v75.1h-9.7l-46-61.1v61.1H354.3z"/>
	<path d="M493.8,123.4c-6.1,2.3-12.6,3.5-19.6,3.5c-27.2,0-40.8-13-40.8-39.1c0-24.7,13.1-37,39.4-37c7.5,0,14.5,1.1,21,3.2v8.4
		c-6.5-2.5-13.1-3.7-20-3.7c-20.5,0-30.7,9.7-30.7,29.2c0,20.8,10.1,31.3,30.3,31.3c3.2,0,6.8-0.4,10.7-1.3V92.2h9.7V123.4z"/>
	<path d="M509.3,97.3V51.2h9.7v46.1c0,14.4,7.2,21.6,21.5,21.6s21.5-7.2,21.5-21.6V51.2h9.7v46.1c0,19.7-10.4,29.5-31.3,29.5
		S509.3,117,509.3,97.3z"/>
	<path d="M598.9,51.2v67.3h39.3v7.9h-49V51.2H598.9z"/>
	<path d="M652.2,126.3h-10.1L674,51.2h10.8l32,75.1H706l-9.7-23.6h-24.9l2.7-7.9h18.9l-14-34L652.2,126.3z"/>
	<path d="M727.1,126.3V51.2h32c14.3,0,21.4,6,21.4,18c0,9.8-7,17-21,21.7l25.8,35.4h-12.8l-23.9-33.8v-6.4
		c14.4-2.3,21.5-7.8,21.5-16.6c0-6.9-4-10.4-12-10.4h-21.4v67.1H727.1z"/>
	<path class="st0" d="M813.5,51.2v53.5c0,14.4-8.5,21.6-25.5,21.6v-7.9c10.5,0,15.8-4.6,15.8-13.8V51.2H813.5z"/>
	<path class="st0" d="M830.8,123.7v-8.9c7.9,2.8,16.4,4.2,25.5,4.2c12.9,0,19.4-4.7,19.4-14.2c0-8.1-4.8-12.1-14.3-12.1h-9.7
		c-15.7,0-23.6-6.8-23.6-20.5c0-14.4,10.1-21.5,30.2-21.5c8.8,0,16.9,1.1,24.4,3.2v8.9c-7.5-2.8-15.7-4.2-24.4-4.2
		c-13.7,0-20.5,4.6-20.5,13.7c0,8.1,4.6,12.1,13.9,12.1h9.7c16,0,24,6.8,24,20.5c0,14.7-9.7,22.1-29.1,22.1
		C847.2,126.8,838.7,125.8,830.8,123.7z"/>
</g>
<g>
	<path d="M276,238.6v-71.2h5.2v32.9h48.5v-32.9h5.2v71.2h-5.2v-33.9h-48.5v33.9H276z"/>
	<path d="M344.7,167.4h6.2l23.1,41.3l23.7-41.3h5.7l-26.7,46.3v24.9h-5.2v-24.9L344.7,167.4z"/>
	<path d="M413.1,238.6v-71.2h25.4c23.2,0,34.9,11.2,34.9,33.7c0,25-11.8,37.5-35.4,37.5H413.1z M438,234.1c19.7,0,29.6-11,29.6-33.1
		c0-19.5-9.9-29.2-29.6-29.2h-19.7v62.2H438z"/>
	<path d="M533.1,167.4v4.5h-41.5v28.4h39.8v4.5h-39.8v29.4h42.2v4.5h-47.4v-71.2H533.1z"/>
	<path d="M548.5,238.6v-71.2h29.4c12.9,0,19.3,5.7,19.3,17.1c0,9.9-7,16.8-21,21l24,33.2h-7.2l-23.6-33V202
		c14.6-2.2,21.9-7.9,21.9-17.2c0-8.6-4.8-12.8-14.3-12.8h-23.3v66.6H548.5z"/>
	<path d="M609.3,238.6h-5.6l32.2-71.2h6.2l32.4,71.2h-6.2l-10.6-23.9h-29.9l2-4.5h25.9l-17.1-38.7L609.3,238.6z"/>
	<path d="M684.2,238.6v-71.2h30.4c13.5,0,20.3,5.5,20.3,16.6c0,8.1-4.9,13.9-14.7,17.4c10.4,1.8,15.6,7.3,15.6,16.7
		c0,13.7-7.4,20.6-22.3,20.6H684.2z M713,234.1c11.5,0,17.2-5.3,17.2-15.9c0-9.4-7.2-14.1-21.6-14.1h-4v-3.5
		c16.6-1.5,24.9-6.9,24.9-16.2c0-8.3-5.1-12.4-15.3-12.4h-24.8v62.2H713z"/>
	<path d="M749.8,238.6h-5.6l32.2-71.2h6.2l32.4,71.2h-6.2l-10.6-23.9h-29.9l2-4.5h25.9l-17.1-38.7L749.8,238.6z"/>
	<path d="M824.7,238.6v-71.2h25.4c23.2,0,34.9,11.2,34.9,33.7c0,25-11.8,37.5-35.4,37.5H824.7z M849.6,234.1
		c19.8,0,29.6-11,29.6-33.1c0-19.5-9.9-29.2-29.6-29.2H830v62.2H849.6z"/>
</g>
</svg>
