<svg id="Layer_4" data-name="Layer 4" xmlns="http://www.w3.org/2000/svg" viewBox="0 0 1085.4 200"><defs><style>.cls-1{fill:#757575;}.cls-2{isolation:isolate;}</style></defs><title>gdg-logo</title><g id="_Group_" data-name=" Group "><path id="_Path_" data-name=" Path " class="cls-1" d="M32.3,0H0L92.3,160l16.2-28Z"/><path id="_Path_2" data-name=" Path 2" class="cls-1" d="M120.9,91,68.3,0H36.1l74.3,128.8,10.5-18.2a18.89,18.89,0,0,0,2.8-9.8A19.87,19.87,0,0,0,120.9,91Z"/><path id="_Path_3" data-name=" Path 3" class="cls-1" d="M56.3,104.1.9,200H33.2l39.3-68Z"/><path id="_Path_4" data-name=" Path 4" class="cls-1" d="M74.3,135.3,37,200H69.2l21.3-36.8Z"/></g><g class="cls-2"><path class="cls-1" d="M180.7,91.7h39c.2.9.4,2,.6,3.2s.2,2.5.2,3.8a45.26,45.26,0,0,1-2.3,14.4,35,35,0,0,1-7.3,12.1,37.07,37.07,0,0,1-12.8,8.8,43.31,43.31,0,0,1-17,3.1,42.23,42.23,0,0,1-16.3-3.1,41.44,41.44,0,0,1-13.3-8.7,40.7,40.7,0,0,1-9-13.2,43.4,43.4,0,0,1,0-33.2,40.7,40.7,0,0,1,9-13.2A41.44,41.44,0,0,1,164.8,57a42.23,42.23,0,0,1,16.3-3.1,43.39,43.39,0,0,1,17.3,3.3,37.92,37.92,0,0,1,13,9.2L201,76.7a29.29,29.29,0,0,0-8.7-6.3,28.25,28.25,0,0,0-11.4-2.2,27.32,27.32,0,0,0-10.3,1.9,24.45,24.45,0,0,0-8.5,5.5,26.09,26.09,0,0,0-5.8,8.6,29.18,29.18,0,0,0-2.2,11.3,27.79,27.79,0,0,0,2.2,11.3,24.89,24.89,0,0,0,5.9,8.6,25.84,25.84,0,0,0,8.6,5.5,27.83,27.83,0,0,0,10.4,1.9,28.16,28.16,0,0,0,10.7-1.8,25.83,25.83,0,0,0,7.5-4.7,16.14,16.14,0,0,0,3.8-5,27.36,27.36,0,0,0,2.5-6.8h-25Z"/><path class="cls-1" d="M232.9,55.8h26.9a48.11,48.11,0,0,1,17,2.9,36,36,0,0,1,12.9,8.2,34.83,34.83,0,0,1,8.2,12.6,43.91,43.91,0,0,1,2.8,16.1,44.45,44.45,0,0,1-2.8,16.2,33.61,33.61,0,0,1-8.2,12.5,36.32,36.32,0,0,1-12.9,8.1,47.71,47.71,0,0,1-17,2.9H232.9Zm26.2,65.3a33.46,33.46,0,0,0,11.5-1.8,21.43,21.43,0,0,0,13.3-13.2,31.24,31.24,0,0,0,1.7-10.5,32.11,32.11,0,0,0-1.7-10.5,21.3,21.3,0,0,0-5-8,24,24,0,0,0-8.3-5.2,31.58,31.58,0,0,0-11.5-1.8H247.9v51.1h11.2Z"/><path class="cls-1" d="M350.5,91.7h39c.2.9.4,2,.6,3.2s.2,2.5.2,3.8a45.26,45.26,0,0,1-2.3,14.4,35,35,0,0,1-7.3,12.1,37.07,37.07,0,0,1-12.8,8.8,43.31,43.31,0,0,1-17,3.1,42.23,42.23,0,0,1-16.3-3.1,41.44,41.44,0,0,1-13.3-8.7,40.7,40.7,0,0,1-9-13.2,43.4,43.4,0,0,1,0-33.2,40.7,40.7,0,0,1,9-13.2A41.44,41.44,0,0,1,334.6,57a42.23,42.23,0,0,1,16.3-3.1,43.39,43.39,0,0,1,17.3,3.3,37.92,37.92,0,0,1,13,9.2L370.9,76.5a29.29,29.29,0,0,0-8.7-6.3A28.25,28.25,0,0,0,350.8,68a27.32,27.32,0,0,0-10.3,1.9,24.45,24.45,0,0,0-8.5,5.5,26.09,26.09,0,0,0-5.8,8.6A29.18,29.18,0,0,0,324,95.3a27.79,27.79,0,0,0,2.2,11.3,24.89,24.89,0,0,0,5.9,8.6,25.84,25.84,0,0,0,8.6,5.5,27.83,27.83,0,0,0,10.4,1.9,28.16,28.16,0,0,0,10.7-1.8,25.83,25.83,0,0,0,7.5-4.7,16.14,16.14,0,0,0,3.8-5,27.36,27.36,0,0,0,2.5-6.8h-25V91.7Z"/><path class="cls-1" d="M427,55.8h15V87.5h33.4V55.8h15v79.5h-15V101.8H442v33.5H427Z"/><path class="cls-1" d="M526.5,98.3,499.7,55.8h17.9l15.9,26.3h.9l15.3-26.3h18.1L541.5,98.3v37h-15v-37Z"/><path class="cls-1" d="M577.1,55.8H604a47.71,47.71,0,0,1,17,2.9,36,36,0,0,1,12.9,8.2,34.83,34.83,0,0,1,8.2,12.6,43.91,43.91,0,0,1,2.8,16.1,44.45,44.45,0,0,1-2.8,16.2,33.61,33.61,0,0,1-8.2,12.5,36.32,36.32,0,0,1-12.9,8.1,47.71,47.71,0,0,1-17,2.9H577.1Zm26.2,65.3a33.46,33.46,0,0,0,11.5-1.8,21.43,21.43,0,0,0,13.3-13.2,31.24,31.24,0,0,0,1.7-10.5,32.11,32.11,0,0,0-1.7-10.5,21.3,21.3,0,0,0-5-8,24,24,0,0,0-8.3-5.2,33.86,33.86,0,0,0-11.5-1.8H592.1v51.1h11.2Z"/><path class="cls-1" d="M671.9,70V88.4h31.9v14.2H671.9V121h35.4v14.2H656.9V55.8h50.4V70Z"/><path class="cls-1" d="M721.1,55.8h29A29.36,29.36,0,0,1,761,57.7a26.48,26.48,0,0,1,8.4,5.2,22.71,22.71,0,0,1,5.4,7.9,25.45,25.45,0,0,1,1.9,10,20.39,20.39,0,0,1-1.3,7.5,22.22,22.22,0,0,1-3.7,6.3,28.39,28.39,0,0,1-5.4,5,31.13,31.13,0,0,1-6.5,3.4l-.1.8L781,134.3v.9H763.8l-20.5-29.9h-7v29.9h-15V55.8Zm28.8,35.9a11.64,11.64,0,0,0,8.4-3.1,10.41,10.41,0,0,0,3.3-7.9,11.41,11.41,0,0,0-.7-4.1,11.27,11.27,0,0,0-2.2-3.6,11.6,11.6,0,0,0-3.6-2.5,12.59,12.59,0,0,0-4.9-.9H736.1V91.7Z"/><path class="cls-1" d="M813.1,55.8h17.1l29.9,79.5H843.6l-6.5-19H806.5l-6.5,19H783.5Zm19,46.8L825,82.7,822.1,73h-.9l-2.9,9.7-7.1,19.9Z"/></g><g class="cls-2"><path class="cls-1" d="M869.4,55.8h31.1a26.7,26.7,0,0,1,9.5,1.6,26.26,26.26,0,0,1,7.7,4.4,22,22,0,0,1,5.2,6.6,17.26,17.26,0,0,1,1.9,8.1,17.29,17.29,0,0,1-3.1,10.6,20.66,20.66,0,0,1-7.6,6.5v.9a21.88,21.88,0,0,1,9.8,6.9c2.5,3.1,3.7,7,3.7,11.7a19.79,19.79,0,0,1-2.1,9.2,20.8,20.8,0,0,1-5.6,6.9,25.35,25.35,0,0,1-8.3,4.4,33,33,0,0,1-10.2,1.6H869.2V55.8Zm29.9,32.4c3.5,0,6.2-.9,8-2.8a9.47,9.47,0,0,0,2.8-6.7,9.07,9.07,0,0,0-2.8-6.7,10.68,10.68,0,0,0-7.7-2.8H884.2v19Zm1.7,33.3c3.8,0,6.7-.9,8.7-2.8a10.38,10.38,0,0,0-.1-14.7c-2-2-5-2.9-9-2.9H884.4v20.4Z"/></g><g class="cls-2"><path class="cls-1" d="M961.3,55.8h17.1l29.9,79.5H991.8l-6.5-19H954.7l-6.5,19H931.7Zm19,46.8-7.1-19.9L970.3,73h-.9l-2.9,9.7-7.1,19.9Z"/><path class="cls-1" d="M1017.6,55.8h26.9a48.11,48.11,0,0,1,17,2.9,36,36,0,0,1,12.9,8.2,34.83,34.83,0,0,1,8.2,12.6,43.91,43.91,0,0,1,2.8,16.1,44.45,44.45,0,0,1-2.8,16.2,33.61,33.61,0,0,1-8.2,12.5,36.32,36.32,0,0,1-12.9,8.1,47.71,47.71,0,0,1-17,2.9h-26.9Zm26.2,65.3a33.46,33.46,0,0,0,11.5-1.8,21.43,21.43,0,0,0,13.3-13.2,31.24,31.24,0,0,0,1.7-10.5,32.11,32.11,0,0,0-1.7-10.5,21.3,21.3,0,0,0-5-8,24,24,0,0,0-8.3-5.2,31.58,31.58,0,0,0-11.5-1.8h-11.2v51.1h11.2Z"/></g></svg>