<?xml version="1.0" encoding="utf-8"?>
<!-- Generator: Adobe Illustrator 21.1.0, SVG Export Plug-In . SVG Version: 6.00 Build 0)  -->
<svg version="1.1" id="Layer_4" xmlns="http://www.w3.org/2000/svg" xmlns:xlink="http://www.w3.org/1999/xlink" x="0px" y="0px"
	 viewBox="0 0 1089.4 200" style="enable-background:new 0 0 1089.4 200;" xml:space="preserve">
<style type="text/css">
	.st0{fill:#757575;}
	.st1{enable-background:new    ;}
</style>
<title>gdg-logo</title>
<g id="_Group_">
	<path id="_Path_" class="st0" d="M32.3,0H0l92.3,160l16.2-28L32.3,0z"/>
	<path id="_Path_2" class="st0" d="M120.9,91L68.3,0H36.1l74.3,128.8l10.5-18.2c1.8-3,2.8-6.3,2.8-9.8C123.6,97.3,122.7,94,120.9,91
		z"/>
	<path id="_Path_3" class="st0" d="M56.3,104.1L0.9,200h32.3l39.3-68L56.3,104.1z"/>
	<path id="_Path_4" class="st0" d="M74.3,135.3L37,200h32.2l21.3-36.8L74.3,135.3z"/>
</g>
<g class="st1">
	<path class="st0" d="M180.7,91.7h39c0.2,0.9,0.4,2,0.6,3.2c0.1,1.3,0.2,2.5,0.2,3.8c0,5.1-0.8,9.9-2.3,14.4
		c-1.6,4.5-4,8.5-7.3,12.1c-3.6,3.8-7.8,6.7-12.8,8.8c-5,2.1-10.6,3.1-17,3.1c-5.8,0-11.2-1-16.3-3.1s-9.5-5-13.3-8.7
		c-3.8-3.7-6.8-8.1-9-13.2c-2.2-5.1-3.3-10.6-3.3-16.6c0-6,1.1-11.5,3.3-16.6c2.2-5.1,5.2-9.5,9-13.2c3.8-3.7,8.2-6.6,13.3-8.7
		c5.1-2.1,10.5-3.1,16.3-3.1c6.4,0,12.2,1.1,17.3,3.3c5.1,2.2,9.4,5.3,13,9.2L201,76.7c-2.6-2.7-5.5-4.8-8.7-6.3
		c-3.2-1.4-7-2.2-11.4-2.2c-3.6,0-7.1,0.6-10.3,1.9c-3.3,1.3-6.1,3.1-8.5,5.5c-2.4,2.4-4.4,5.2-5.8,8.6c-1.4,3.4-2.2,7.1-2.2,11.3
		c0,4.1,0.7,7.9,2.2,11.3c1.4,3.4,3.4,6.2,5.9,8.6c2.5,2.4,5.3,4.2,8.6,5.5c3.3,1.3,6.7,1.9,10.4,1.9c4.2,0,7.8-0.6,10.7-1.8
		c2.9-1.2,5.4-2.8,7.5-4.7c1.5-1.3,2.8-3,3.8-5c1.1-2,1.9-4.3,2.5-6.8h-25V91.7z"/>
	<path class="st0" d="M232.9,55.8h26.9c6.3,0,11.9,1,17,2.9c5,1.9,9.3,4.6,12.9,8.2c3.6,3.5,6.3,7.7,8.2,12.6
		c1.9,4.9,2.8,10.2,2.8,16.1c0,5.9-0.9,11.3-2.8,16.2c-1.9,4.9-4.6,9.1-8.2,12.5c-3.6,3.5-7.8,6.2-12.9,8.1c-5,1.9-10.7,2.9-17,2.9
		h-26.9V55.8z M259.1,121.1c4.4,0,8.2-0.6,11.5-1.8c3.3-1.2,6.1-2.9,8.3-5.2c2.2-2.2,3.9-4.9,5-8c1.1-3.1,1.7-6.6,1.7-10.5
		c0-3.8-0.6-7.3-1.7-10.5c-1.1-3.1-2.8-5.8-5-8c-2.2-2.2-5-3.9-8.3-5.2s-7.2-1.8-11.5-1.8h-11.2v51.1H259.1z"/>
	<path class="st0" d="M350.5,91.7h39c0.2,0.9,0.4,2,0.6,3.2c0.1,1.3,0.2,2.5,0.2,3.8c0,5.1-0.8,9.9-2.3,14.4
		c-1.6,4.5-4,8.5-7.3,12.1c-3.6,3.8-7.8,6.7-12.8,8.8c-5,2.1-10.6,3.1-17,3.1c-5.8,0-11.2-1-16.3-3.1s-9.5-5-13.3-8.7
		c-3.8-3.7-6.8-8.1-9-13.2c-2.2-5.1-3.3-10.6-3.3-16.6c0-6,1.1-11.5,3.3-16.6c2.2-5.1,5.2-9.5,9-13.2c3.8-3.7,8.2-6.6,13.3-8.7
		c5.1-2.1,10.5-3.1,16.3-3.1c6.4,0,12.2,1.1,17.3,3.3c5.1,2.2,9.4,5.3,13,9.2l-10.3,10.1c-2.6-2.7-5.5-4.8-8.7-6.3
		c-3.2-1.4-7-2.2-11.4-2.2c-3.6,0-7.1,0.6-10.3,1.9c-3.3,1.3-6.1,3.1-8.5,5.5c-2.4,2.4-4.4,5.2-5.8,8.6c-1.4,3.4-2.2,7.1-2.2,11.3
		c0,4.1,0.7,7.9,2.2,11.3c1.4,3.4,3.4,6.2,5.9,8.6c2.5,2.4,5.3,4.2,8.6,5.5c3.3,1.3,6.7,1.9,10.4,1.9c4.2,0,7.8-0.6,10.7-1.8
		c2.9-1.2,5.4-2.8,7.5-4.7c1.5-1.3,2.8-3,3.8-5c1.1-2,1.9-4.3,2.5-6.8h-25V91.7z"/>
	<path class="st0" d="M427,55.8h15v31.7h33.4V55.8h15v79.5h-15v-33.5H442v33.5h-15V55.8z"/>
	<path class="st0" d="M526.5,98.3l-26.8-42.5h17.9l15.9,26.3h0.9l15.3-26.3h18.1l-26.3,42.5v37h-15V98.3z"/>
	<path class="st0" d="M577.1,55.8H604c6.3,0,12,1,17,2.9c5,1.9,9.3,4.6,12.9,8.2c3.6,3.5,6.3,7.7,8.2,12.6
		c1.9,4.9,2.8,10.2,2.8,16.1c0,5.9-0.9,11.3-2.8,16.2c-1.9,4.9-4.6,9.1-8.2,12.5c-3.6,3.5-7.8,6.2-12.9,8.1c-5,1.9-10.7,2.9-17,2.9
		h-26.9V55.8z M603.3,121.1c4.4,0,8.2-0.6,11.5-1.8c3.3-1.2,6.1-2.9,8.3-5.2c2.2-2.2,3.9-4.9,5-8c1.1-3.1,1.7-6.6,1.7-10.5
		c0-3.8-0.6-7.3-1.7-10.5c-1.1-3.1-2.8-5.8-5-8c-2.2-2.2-5-3.9-8.3-5.2c-3.3-1.2-7.2-1.8-11.5-1.8h-11.2v51.1H603.3z"/>
	<path class="st0" d="M671.9,70v18.4h31.9v14.2h-31.9v18.4h35.4v14.2h-50.4V55.8h50.4V70H671.9z"/>
	<path class="st0" d="M721.1,55.8h29c4,0,7.6,0.6,10.9,1.9c3.3,1.3,6,3,8.4,5.2s4.1,4.9,5.4,7.9c1.3,3.1,1.9,6.4,1.9,10
		c0,2.7-0.4,5.2-1.3,7.5s-2.1,4.4-3.7,6.3s-3.4,3.6-5.4,5c-2.1,1.4-4.3,2.6-6.5,3.4l-0.1,0.8l21.3,30.5v0.9h-17.2l-20.5-29.9h-7
		v29.9h-15V55.8z M749.9,91.7c3.4,0,6.2-1,8.4-3.1c2.2-2.1,3.3-4.7,3.3-7.9c0-1.4-0.2-2.8-0.7-4.1c-0.5-1.3-1.2-2.5-2.2-3.6
		c-1-1-2.2-1.9-3.6-2.5c-1.4-0.6-3.1-0.9-4.9-0.9h-14.1v22.1H749.9z"/>
	<path class="st0" d="M813.1,55.8h17.1l29.9,79.5h-16.5l-6.5-19h-30.6l-6.5,19h-16.5L813.1,55.8z M832.1,102.6L825,82.7l-2.9-9.7
		h-0.9l-2.9,9.7l-7.1,19.9H832.1z"/>
</g>
<g class="st1">
	<path class="st0" d="M869.4,55.8h31.1c3.4,0,6.6,0.5,9.5,1.6c3,1.1,5.5,2.6,7.7,4.4c2.2,1.9,3.9,4.1,5.2,6.6
		c1.3,2.5,1.9,5.2,1.9,8.1c0,4.2-1,7.8-3.1,10.6c-2,2.8-4.6,5-7.6,6.5v0.9c4.1,1.5,7.3,3.8,9.8,6.9c2.5,3.1,3.7,7,3.7,11.7
		c0,3.4-0.7,6.5-2.1,9.2c-1.4,2.7-3.2,5-5.6,6.9c-2.4,1.9-5.1,3.4-8.3,4.4c-3.1,1-6.5,1.6-10.2,1.6h-32.2V55.8z M899.3,88.2
		c3.5,0,6.2-0.9,8-2.8s2.8-4.1,2.8-6.7c0-2.6-0.9-4.8-2.8-6.7c-1.9-1.8-4.4-2.8-7.7-2.8h-15.4v19H899.3z M901,121.5
		c3.8,0,6.7-0.9,8.7-2.8c2-1.9,3-4.3,3-7.3c0-3-1-5.4-3.1-7.4c-2-2-5-2.9-9-2.9h-16.2v20.4H901z"/>
</g>
<g class="st1">
	<path class="st0" d="M961.3,55.8h17.1l29.9,79.5h-16.5l-6.5-19h-30.6l-6.5,19h-16.5L961.3,55.8z M980.3,102.6l-7.1-19.9l-2.9-9.7
		h-0.9l-2.9,9.7l-7.1,19.9H980.3z"/>
	<path class="st0" d="M1017.6,55.8h26.9c6.3,0,11.9,1,17,2.9c5,1.9,9.3,4.6,12.9,8.2c3.6,3.5,6.3,7.7,8.2,12.6
		c1.9,4.9,2.8,10.2,2.8,16.1c0,5.9-0.9,11.3-2.8,16.2c-1.9,4.9-4.6,9.1-8.2,12.5c-3.6,3.5-7.8,6.2-12.9,8.1c-5,1.9-10.7,2.9-17,2.9
		h-26.9V55.8z M1043.8,121.1c4.4,0,8.2-0.6,11.5-1.8c3.3-1.2,6.1-2.9,8.3-5.2c2.2-2.2,3.9-4.9,5-8c1.1-3.1,1.7-6.6,1.7-10.5
		c0-3.8-0.6-7.3-1.7-10.5c-1.1-3.1-2.8-5.8-5-8c-2.2-2.2-5-3.9-8.3-5.2s-7.2-1.8-11.5-1.8h-11.2v51.1H1043.8z"/>
</g>
</svg>
