<svg id="Layer_4" data-name="Layer 4" xmlns="http://www.w3.org/2000/svg" viewBox="0 0 1089.37 200"><defs><style>.cls-1,.cls-2{fill:#757575;}.cls-2{isolation:isolate;font-size:111px;font-family:ProductSans-Bold, Product Sans;font-weight:700;}.cls-3{letter-spacing:-0.01em;}</style></defs><title>gdg-logo</title><g id="_Group_" data-name="&lt;Group&gt;"><path id="_Path_" data-name="&lt;Path&gt;" class="cls-1" d="M32.3,0H0L92.3,160l16.2-28Z" transform="translate(0 0)"/><path id="_Path_2" data-name="&lt;Path&gt;" class="cls-1" d="M120.9,91,68.3,0H36.1l74.3,128.8,10.5-18.2a19,19,0,0,0,2.8-9.8,20.33,20.33,0,0,0-2.8-9.8Z" transform="translate(0 0)"/><path id="_Path_3" data-name="&lt;Path&gt;" class="cls-1" d="M56.3,104.1.9,200H33.2l39.3-68Z" transform="translate(0 0)"/><path id="_Path_4" data-name="&lt;Path&gt;" class="cls-1" d="M74.3,135.3,37,200H69.2l21.3-36.8L74.3,135.3Z" transform="translate(0 0)"/></g><text class="cls-2" transform="translate(135 135.3)">GDG HYDERA<tspan class="cls-3" x="726.38" y="0">B</tspan><tspan x="795.09" y="0">AD</tspan></text></svg>