<?xml version="1.0" encoding="utf-8"?>
<!-- Generator: Adobe Illustrator 21.1.0, SVG Export Plug-In . SVG Version: 6.00 Build 0)  -->
<svg version="1.1" id="Layer_4" xmlns="http://www.w3.org/2000/svg" xmlns:xlink="http://www.w3.org/1999/xlink" x="0px" y="0px"
	 viewBox="0 0 839 200" style="enable-background:new 0 0 839 200;" xml:space="preserve">
<style type="text/css">
	.st0{fill:#FFFFFF;}
</style>
<g>
	<g id="XMLID_261_">
		<path id="XMLID_259_" class="st0" d="M32.3,0H0l92.3,160l16.2-28L32.3,0z"/>
		<path id="XMLID_258_" class="st0" d="M120.9,91L68.3,0H36.1l74.3,128.8l10.5-18.2c1.7-2.8,2.8-6.2,2.8-9.8
			C123.6,97.2,122.6,93.9,120.9,91z"/>
		<path id="XMLID_257_" class="st0" d="M56.3,104.1L0.9,200h32.3l39.3-68L56.3,104.1z"/>
		<path id="XMLID_256_" class="st0" d="M74.3,135.3L37,200h32.2l21.3-36.8L74.3,135.3z"/>
	</g>
	<g>
		<path class="st0" d="M235,45.7h35.8c0.2,0.8,0.4,1.8,0.5,3c0.1,1.2,0.2,2.3,0.2,3.5c0,4.7-0.7,9.1-2.1,13.3
			c-1.4,4.1-3.7,7.9-6.7,11.1c-3.3,3.5-7.2,6.2-11.7,8.1c-4.6,1.9-9.8,2.9-15.6,2.9c-5.3,0-10.3-1-15-2.9c-4.7-1.9-8.8-4.6-12.2-8
			c-3.5-3.4-6.2-7.4-8.3-12.1c-2-4.7-3.1-9.7-3.1-15.2c0-5.5,1-10.6,3.1-15.2c2-4.7,4.8-8.7,8.3-12.1c3.5-3.4,7.5-6.1,12.2-8
			c4.7-1.9,9.7-2.9,15-2.9c5.9,0,11.2,1,15.9,3.1c4.7,2,8.7,4.9,12,8.5l-9.5,9.3c-2.4-2.5-5-4.4-8-5.8c-2.9-1.3-6.4-2-10.5-2
			c-3.3,0-6.5,0.6-9.5,1.8c-3,1.2-5.6,2.9-7.9,5c-2.2,2.2-4,4.8-5.4,7.9c-1.3,3.1-2,6.5-2,10.4c0,3.8,0.7,7.3,2,10.4
			c1.3,3.1,3.1,5.7,5.4,7.9c2.3,2.2,4.9,3.9,7.9,5c3,1.2,6.2,1.8,9.6,1.8c3.9,0,7.2-0.6,9.8-1.7c2.7-1.1,5-2.6,6.9-4.3
			c1.4-1.2,2.5-2.8,3.5-4.6c1-1.9,1.8-4,2.3-6.3H235V45.7z"/>
		<path class="st0" d="M283,12.7h24.7c5.8,0,11,0.9,15.6,2.7c4.6,1.8,8.6,4.3,11.8,7.5c3.3,3.2,5.8,7.1,7.5,11.6
			c1.7,4.5,2.6,9.4,2.6,14.8c0,5.4-0.9,10.4-2.6,14.9c-1.7,4.5-4.2,8.3-7.5,11.5c-3.3,3.2-7.2,5.7-11.8,7.4
			c-4.6,1.8-9.8,2.7-15.6,2.7H283V12.7z M307,72.7c4,0,7.5-0.6,10.6-1.7c3.1-1.1,5.6-2.7,7.6-4.7c2-2,3.6-4.5,4.6-7.4
			c1-2.9,1.5-6.1,1.5-9.6c0-3.5-0.5-6.7-1.5-9.6c-1-2.9-2.5-5.4-4.6-7.4c-2-2-4.6-3.6-7.6-4.7c-3.1-1.1-6.6-1.7-10.6-1.7h-10.3v46.9
			H307z"/>
		<path class="st0" d="M391,45.7h35.8c0.2,0.8,0.4,1.8,0.5,3c0.1,1.2,0.2,2.3,0.2,3.5c0,4.7-0.7,9.1-2.1,13.3
			c-1.4,4.1-3.7,7.9-6.7,11.1c-3.3,3.5-7.2,6.2-11.7,8.1c-4.6,1.9-9.8,2.9-15.6,2.9c-5.3,0-10.3-1-15-2.9c-4.7-1.9-8.8-4.6-12.2-8
			c-3.5-3.4-6.2-7.4-8.3-12.1c-2-4.7-3.1-9.7-3.1-15.2c0-5.5,1-10.6,3.1-15.2c2-4.7,4.8-8.7,8.3-12.1c3.5-3.4,7.5-6.1,12.2-8
			c4.7-1.9,9.7-2.9,15-2.9c5.9,0,11.2,1,15.9,3.1c4.7,2,8.7,4.9,12,8.5l-9.5,9.3c-2.4-2.5-5-4.4-8-5.8c-2.9-1.3-6.4-2-10.5-2
			c-3.3,0-6.5,0.6-9.5,1.8c-3,1.2-5.6,2.9-7.9,5c-2.2,2.2-4,4.8-5.4,7.9c-1.3,3.1-2,6.5-2,10.4c0,3.8,0.7,7.3,2,10.4
			c1.3,3.1,3.1,5.7,5.4,7.9c2.3,2.2,4.9,3.9,7.9,5c3,1.2,6.2,1.8,9.6,1.8c3.9,0,7.2-0.6,9.8-1.7c2.7-1.1,5-2.6,6.9-4.3
			c1.4-1.2,2.5-2.8,3.5-4.6c1-1.9,1.8-4,2.3-6.3H391V45.7z"/>
		<path class="st0" d="M461.3,12.7H486c5.8,0,11,0.9,15.6,2.7c4.6,1.8,8.6,4.3,11.8,7.5c3.3,3.2,5.8,7.1,7.5,11.6
			c1.7,4.5,2.6,9.4,2.6,14.8c0,5.4-0.9,10.4-2.6,14.9c-1.7,4.5-4.2,8.3-7.5,11.5c-3.3,3.2-7.2,5.7-11.8,7.4
			c-4.6,1.8-9.8,2.7-15.6,2.7h-24.7V12.7z M485.4,72.7c4,0,7.5-0.6,10.6-1.7c3.1-1.1,5.6-2.7,7.6-4.7c2-2,3.6-4.5,4.6-7.4
			c1-2.9,1.5-6.1,1.5-9.6c0-3.5-0.5-6.7-1.5-9.6c-1-2.9-2.5-5.4-4.6-7.4c-2-2-4.6-3.6-7.6-4.7c-3.1-1.1-6.6-1.7-10.6-1.7h-10.3v46.9
			H485.4z"/>
		<path class="st0" d="M578.8,73.7c-2.3,4.1-5.4,7.4-9.3,9.9c-3.9,2.5-8.7,3.8-14.3,3.8c-3.8,0-7.3-0.7-10.6-2
			c-3.2-1.3-6-3.2-8.4-5.6c-2.4-2.4-4.2-5.2-5.6-8.4c-1.3-3.2-2-6.8-2-10.7c0-3.6,0.6-7,1.9-10.2c1.3-3.2,3.1-6.1,5.4-8.5
			c2.3-2.4,5-4.3,8.2-5.8s6.6-2.1,10.5-2.1c4,0,7.6,0.7,10.7,2c3.1,1.3,5.7,3.2,7.9,5.5c2.1,2.3,3.7,5.1,4.8,8.3
			c1.1,3.2,1.6,6.7,1.6,10.4c0,0.5,0,0.9,0,1.2c-0.1,0.4-0.1,0.8-0.1,1.1c-0.1,0.3-0.1,0.7-0.1,1.1h-37.6c0.3,2,0.8,3.8,1.7,5.3
			c0.8,1.5,1.9,2.7,3.2,3.7c1.3,1,2.6,1.7,4.1,2.1c1.5,0.4,3,0.7,4.6,0.7c3.1,0,5.6-0.7,7.6-2.1c2-1.4,3.6-3.1,4.7-5.3L578.8,73.7z
			 M566.7,54.3c-0.1-0.9-0.4-1.9-0.9-3c-0.5-1.1-1.3-2.1-2.2-3.1c-1-1-2.2-1.7-3.7-2.3c-1.5-0.6-3.2-0.9-5.3-0.9
			c-2.9,0-5.4,0.8-7.5,2.4c-2.2,1.6-3.7,3.9-4.6,6.8H566.7z"/>
		<path class="st0" d="M581.9,35.8h15.2l12.4,31.8h0.7l12.5-31.8h15.1l-21.5,50h-13.2L581.9,35.8z"/>
		<path class="st0" d="M645.6,12.7h46.3v13.1h-32.5v17.7h29.3v13.1h-29.3v29.2h-13.8V12.7z"/>
		<path class="st0" d="M745.2,73.7c-2.3,4.1-5.4,7.4-9.3,9.9c-3.9,2.5-8.7,3.8-14.3,3.8c-3.8,0-7.3-0.7-10.6-2
			c-3.2-1.3-6-3.2-8.4-5.6c-2.4-2.4-4.2-5.2-5.6-8.4c-1.3-3.2-2-6.8-2-10.7c0-3.6,0.6-7,1.9-10.2c1.3-3.2,3.1-6.1,5.4-8.5
			c2.3-2.4,5-4.3,8.2-5.8s6.6-2.1,10.5-2.1c4,0,7.6,0.7,10.7,2c3.1,1.3,5.7,3.2,7.9,5.5c2.1,2.3,3.7,5.1,4.8,8.3
			c1.1,3.2,1.6,6.7,1.6,10.4c0,0.5,0,0.9,0,1.2c-0.1,0.4-0.1,0.8-0.1,1.1c-0.1,0.3-0.1,0.7-0.1,1.1h-37.6c0.3,2,0.8,3.8,1.7,5.3
			c0.8,1.5,1.9,2.7,3.2,3.7c1.3,1,2.6,1.7,4.1,2.1c1.5,0.4,3,0.7,4.6,0.7c3.1,0,5.6-0.7,7.6-2.1c2-1.4,3.6-3.1,4.7-5.3L745.2,73.7z
			 M733,54.3c-0.1-0.9-0.4-1.9-0.9-3c-0.5-1.1-1.3-2.1-2.2-3.1c-1-1-2.2-1.7-3.7-2.3c-1.5-0.6-3.2-0.9-5.3-0.9
			c-2.9,0-5.4,0.8-7.5,2.4c-2.2,1.6-3.7,3.9-4.6,6.8H733z"/>
		<path class="st0" d="M774.8,87.4c-3.3,0-6.2-0.4-8.7-1.2c-2.5-0.8-4.8-1.9-6.6-3.2c-1.9-1.3-3.5-2.9-4.7-4.6
			c-1.3-1.7-2.3-3.5-3-5.3l11.9-5.1c1.2,2.6,2.7,4.5,4.6,5.8c1.9,1.3,4.1,1.9,6.5,1.9c2.4,0,4.4-0.4,5.8-1.3
			c1.4-0.9,2.1-1.9,2.1-3.2c0-1.4-0.6-2.5-1.8-3.3c-1.2-0.8-3.2-1.6-6.2-2.3l-7-1.5c-1.6-0.3-3.2-0.9-4.8-1.6
			c-1.7-0.7-3.2-1.7-4.5-2.9c-1.4-1.2-2.5-2.5-3.4-4.2c-0.9-1.6-1.3-3.5-1.3-5.7c0-2.4,0.5-4.6,1.6-6.5c1.1-1.9,2.5-3.5,4.3-4.8
			c1.8-1.3,4-2.3,6.5-3.1c2.5-0.7,5.2-1.1,8-1.1c4.8,0,9,0.9,12.7,2.8c3.7,1.9,6.5,4.8,8.3,8.9l-11.5,4.7c-1-2-2.3-3.4-4.2-4.3
			c-1.8-0.9-3.7-1.3-5.5-1.3c-1.9,0-3.6,0.4-5,1.2c-1.4,0.8-2.1,1.8-2.1,3c0,1.2,0.6,2.1,1.8,2.8c1.2,0.7,2.8,1.3,4.8,1.8l7.6,1.8
			c5.1,1.2,8.9,3.2,11.4,5.9c2.5,2.7,3.7,5.9,3.7,9.5c0,2.2-0.5,4.2-1.5,6.2c-1,2-2.5,3.7-4.3,5.3c-1.9,1.5-4.1,2.7-6.7,3.6
			C781,86.9,778,87.4,774.8,87.4z"/>
		<path class="st0" d="M809.3,47.2h-8.8V35.8h8.8V20.5h13.4v15.3h12.2v11.4h-12.2v20c0,1.2,0.1,2.3,0.4,3.3c0.2,1,0.7,1.9,1.4,2.6
			c1,1.1,2.3,1.7,4.1,1.7c1.2,0,2.1-0.1,2.8-0.4c0.7-0.2,1.3-0.6,1.9-1l3.8,11.7c-1.6,0.7-3.2,1.3-5,1.7c-1.8,0.4-3.8,0.6-6,0.6
			c-2.5,0-4.8-0.4-6.8-1.2c-2-0.8-3.7-1.9-5-3.3c-3.2-3.1-4.8-7.6-4.8-13.3V47.2z"/>
	</g>
	<g>
		<path class="st0" d="M247,162.9c0,6.6-2.4,11.9-7.2,15.9c-4.9,3.9-10.9,5.9-17.9,5.9c-6.2,0-11.7-1.8-16.5-5.5
			c-4.8-3.6-8.1-8.6-9.9-14.9l9.2-3.8c0.6,2.2,1.5,4.3,2.6,6.1c1.1,1.8,2.4,3.4,3.9,4.7c1.5,1.3,3.2,2.3,5,3
			c1.8,0.7,3.7,1.1,5.8,1.1c4.4,0,8-1.1,10.8-3.4c2.8-2.3,4.2-5.3,4.2-9.1c0-3.2-1.2-5.8-3.5-8.1c-2.2-2.2-6.2-4.3-12.2-6.3
			c-6-2.2-9.8-3.6-11.2-4.4c-8-4.1-12-10-12-18c0-5.5,2.2-10.3,6.6-14.2c4.5-3.9,10-5.9,16.5-5.9c5.7,0,10.7,1.5,14.9,4.4
			c4.2,2.9,7,6.5,8.4,10.8l-9,3.8c-0.8-2.8-2.5-5.1-5-7c-2.5-1.9-5.5-2.8-9.1-2.8c-3.8,0-7,1.1-9.6,3.2c-2.6,2-3.9,4.5-3.9,7.7
			c0,2.6,1,4.8,3,6.7c2.2,1.9,7.1,4.1,14.6,6.7c7.6,2.6,13.1,5.8,16.3,9.5C245.4,152.8,247,157.4,247,162.9z"/>
		<path class="st0" d="M280.1,184.6c-7.6,0-13.8-2.6-18.7-7.8c-4.9-5.2-7.4-11.7-7.4-19.6c0-7.8,2.4-14.4,7.1-19.6
			c4.8-5.2,10.9-7.8,18.3-7.8c7.6,0,13.7,2.5,18.2,7.4s6.8,11.9,6.8,20.7l-0.1,1h-40.4c0.1,5,1.8,9.1,5,12.2
			c3.2,3.1,7.1,4.6,11.6,4.6c6.2,0,11-3.1,14.5-9.2l8.6,4.2c-2.3,4.3-5.5,7.7-9.6,10.2C289.9,183.4,285.3,184.6,280.1,184.6z
			 M264.6,151h29.5c-0.3-3.6-1.7-6.5-4.4-8.9c-2.6-2.3-6.1-3.5-10.6-3.5c-3.6,0-6.8,1.1-9.4,3.4C267.2,144.2,265.5,147.2,264.6,151z
			"/>
		<path class="st0" d="M333.3,129.8c7.1,0,12.8,1.9,16.9,5.7c4.1,3.8,6.2,9.1,6.2,15.7v31.7h-9.2v-7.1h-0.4c-4,5.9-9.3,8.8-16,8.8
			c-5.7,0-10.4-1.7-14.2-5c-3.8-3.4-5.7-7.6-5.7-12.6c0-5.3,2-9.6,6-12.7c4-3.2,9.4-4.7,16.1-4.7c5.7,0,10.5,1.1,14.2,3.2v-2.2
			c0-3.4-1.3-6.2-4-8.6c-2.7-2.3-5.8-3.5-9.3-3.5c-5.4,0-9.7,2.3-12.8,6.8l-8.5-5.4C317.2,133.2,324.2,129.8,333.3,129.8z
			 M320.8,167.2c0,2.5,1.1,4.6,3.2,6.3c2.1,1.7,4.6,2.5,7.5,2.5c4.1,0,7.7-1.5,10.9-4.5c3.2-3,4.8-6.5,4.8-10.6
			c-3-2.4-7.2-3.6-12.6-3.6c-3.9,0-7.2,0.9-9.8,2.8C322.2,162,320.8,164.4,320.8,167.2z"/>
		<path class="st0" d="M406.3,168.7c0,4.5-2,8.3-5.9,11.3c-3.9,3.1-8.9,4.6-14.8,4.6c-5.2,0-9.7-1.3-13.7-4
			c-3.9-2.7-6.7-6.3-8.4-10.7l8.6-3.7c1.3,3.1,3.1,5.5,5.5,7.2c2.4,1.7,5.1,2.6,7.9,2.6c3.1,0,5.7-0.7,7.7-2
			c2.1-1.3,3.1-2.9,3.1-4.7c0-3.3-2.5-5.7-7.6-7.2l-8.8-2.2c-10-2.5-15-7.4-15-14.5c0-4.7,1.9-8.5,5.7-11.3
			c3.8-2.8,8.7-4.3,14.7-4.3c4.6,0,8.7,1.1,12.3,3.3c3.7,2.2,6.3,5.1,7.7,8.7l-8.6,3.6c-1-2.2-2.6-3.9-4.8-5.1
			c-2.2-1.2-4.7-1.8-7.4-1.8c-2.5,0-4.8,0.6-6.8,1.9c-2,1.3-3,2.8-3,4.6c0,2.9,2.8,5,8.3,6.3l7.8,2
			C401.1,155.7,406.3,160.9,406.3,168.7z"/>
		<path class="st0" d="M412.2,157.2c0-7.9,2.5-14.5,7.5-19.6c5-5.2,11.4-7.8,19-7.8s13.9,2.6,18.9,7.8c5,5.2,7.6,11.7,7.6,19.6
			c0,8-2.5,14.5-7.6,19.6c-5,5.2-11.3,7.8-18.9,7.8s-14-2.6-19-7.8C414.7,171.7,412.2,165.1,412.2,157.2z M421.9,157.2
			c0,5.5,1.6,10,4.8,13.4c3.2,3.4,7.2,5.1,12,5.1s8.8-1.7,12-5.1c3.2-3.4,4.8-7.9,4.8-13.4c0-5.5-1.6-9.9-4.8-13.3
			c-3.3-3.5-7.3-5.3-12-5.3s-8.7,1.8-12,5.3C423.5,147.3,421.9,151.7,421.9,157.2z"/>
		<path class="st0" d="M473,131.5h9.2v7.1h0.4c1.5-2.5,3.7-4.6,6.8-6.3c3-1.7,6.2-2.5,9.5-2.5c6.3,0,11.2,1.8,14.5,5.4
			c3.4,3.6,5.1,8.7,5.1,15.4v32.4h-9.7v-31.7c-0.2-8.4-4.4-12.6-12.7-12.6c-3.9,0-7.1,1.6-9.7,4.7c-2.6,3.1-3.9,6.8-3.9,11.2v28.5
			H473V131.5z"/>
		<path class="st0" d="M597.1,173.7v9.2h-45.8v-9.7l18.6-18.8c6.2-6.4,10.5-11.2,12.9-14.3c2.4-3.2,3.6-6.5,3.6-10
			c0-3.2-1.2-5.8-3.7-8.1c-2.5-2.2-5.6-3.4-9.5-3.4c-3.3,0-6.1,1-8.5,2.9c-2.4,2-3.9,4.3-4.6,7.1l-8.8-3.6c1.4-4.4,4.1-8.1,8.1-11.2
			c4-3,8.7-4.6,14.1-4.6c6.5,0,11.9,2,16.3,6c4.3,4,6.5,8.9,6.5,14.7c0,6.9-3.8,14.4-11.5,22.5l-21,21.1H597.1z"/>
		<path class="st0" d="M606.4,147c0-10.9,2.7-19.9,8.1-27c5.4-7.1,12.3-10.6,20.8-10.6c8.5,0,15.4,3.6,20.8,10.7
			c5.4,7.1,8.1,16,8.1,26.9c0,10.8-2.7,19.8-8.1,27c-5.4,7.1-12.3,10.6-20.8,10.6c-8.5,0-15.4-3.5-20.8-10.6
			C609.1,166.8,606.4,157.8,606.4,147z M654.3,147c0-8.3-1.8-15.1-5.3-20.4c-3.4-5.3-8-8-13.8-8s-10.3,2.7-13.8,8
			c-3.5,5.3-5.3,12.1-5.3,20.4c0,8.3,1.8,15.1,5.3,20.5c3.4,5.3,8,7.9,13.8,7.9s10.3-2.7,13.8-8C652.5,162,654.3,155.2,654.3,147z"
			/>
		<path class="st0" d="M699.2,111.1v71.9h-9.7v-59.9l-14,6.1l-3.7-8.2l21.1-9.9H699.2z"/>
		<path class="st0" d="M758.8,121l-34.9,63.7l-8.6-4.4l33.3-59.9h-36.3l0.2-9.2h46.3V121z"/>
	</g>
</g>
</svg>
