<svg id="Layer_4" data-name="Layer 4" xmlns="http://www.w3.org/2000/svg" viewBox="0 0 836.96 200"><defs><style>.cls-1{fill:#fff;}</style></defs><title>logo-white</title><g id="_Group_" data-name="&lt;Group&gt;"><path id="_Path_" data-name="&lt;Path&gt;" class="cls-1" d="M32.3,0H0L92.3,160l16.2-28Z" transform="translate(0 0)"/><path id="_Path_2" data-name="&lt;Path&gt;" class="cls-1" d="M120.9,91,68.3,0H36.1l74.3,128.8,10.5-18.2a19,19,0,0,0,2.8-9.8A20.33,20.33,0,0,0,120.9,91Z" transform="translate(0 0)"/><path id="_Path_3" data-name="&lt;Path&gt;" class="cls-1" d="M56.3,104.1.9,200H33.2l39.3-68Z" transform="translate(0 0)"/><path id="_Path_4" data-name="&lt;Path&gt;" class="cls-1" d="M74.3,135.3,37,200H69.2l21.3-36.8Z" transform="translate(0 0)"/></g><path class="cls-1" d="M235,45.65h35.8a24.15,24.15,0,0,1,.51,3,29.84,29.84,0,0,1,.2,3.47,40.45,40.45,0,0,1-2.14,13.26,30.71,30.71,0,0,1-6.73,11.12,33.77,33.77,0,0,1-11.73,8.06,40.19,40.19,0,0,1-15.6,2.86,39.51,39.51,0,0,1-15-2.86,37.27,37.27,0,0,1-12.24-8,38.15,38.15,0,0,1-8.26-12.09,37.58,37.58,0,0,1-3.06-15.25A37.59,37.59,0,0,1,199.83,34a38.19,38.19,0,0,1,8.26-12.09,37.33,37.33,0,0,1,12.24-8,41.72,41.72,0,0,1,30.85.2,35.55,35.55,0,0,1,12,8.47l-9.49,9.28a25.93,25.93,0,0,0-27.95-6,23.78,23.78,0,0,0-7.85,5,24.07,24.07,0,0,0-5.35,7.9,26,26,0,0,0-2,10.35,26,26,0,0,0,2,10.35,23.65,23.65,0,0,0,5.41,7.9,24.31,24.31,0,0,0,7.9,5,28.07,28.07,0,0,0,19.43.1,23,23,0,0,0,6.88-4.33,16.53,16.53,0,0,0,3.52-4.64A26.38,26.38,0,0,0,258,57.38H235Z" transform="translate(0 0)"/><path class="cls-1" d="M283,12.71h24.68a43.43,43.43,0,0,1,15.6,2.65,33.7,33.7,0,0,1,11.83,7.5,32.59,32.59,0,0,1,7.5,11.58,40.71,40.71,0,0,1,2.6,14.79,41,41,0,0,1-2.6,14.89,32.07,32.07,0,0,1-7.5,11.52,34,34,0,0,1-11.83,7.45,43.4,43.4,0,0,1-15.6,2.65H283Zm24.07,60A30.73,30.73,0,0,0,317.63,71a20.72,20.72,0,0,0,7.65-4.74,19.44,19.44,0,0,0,4.59-7.39,28.8,28.8,0,0,0,1.53-9.64,28.81,28.81,0,0,0-1.53-9.64,19.46,19.46,0,0,0-4.59-7.39,20.73,20.73,0,0,0-7.65-4.74A30.74,30.74,0,0,0,307,25.76h-10.3V72.68Z" transform="translate(0 0)"/><path class="cls-1" d="M391,45.65h35.8a23.88,23.88,0,0,1,.51,3,29.52,29.52,0,0,1,.21,3.47,40.45,40.45,0,0,1-2.14,13.26,30.72,30.72,0,0,1-6.73,11.12,33.77,33.77,0,0,1-11.73,8.06,40.19,40.19,0,0,1-15.6,2.86,39.51,39.51,0,0,1-15-2.86,37.27,37.27,0,0,1-12.24-8,38.15,38.15,0,0,1-8.26-12.09,37.58,37.58,0,0,1-3.06-15.25A37.59,37.59,0,0,1,355.78,34,38.19,38.19,0,0,1,364,21.89a37.33,37.33,0,0,1,12.24-8,41.72,41.72,0,0,1,30.85.2,35.55,35.55,0,0,1,12,8.47l-9.49,9.28a25.93,25.93,0,0,0-27.95-6,23.78,23.78,0,0,0-7.85,5,24.07,24.07,0,0,0-5.35,7.9,26,26,0,0,0-2,10.35,26,26,0,0,0,2,10.35,23.65,23.65,0,0,0,5.41,7.9,24.31,24.31,0,0,0,7.9,5,28.07,28.07,0,0,0,19.43.1,23,23,0,0,0,6.88-4.33,16.53,16.53,0,0,0,3.52-4.64,26.38,26.38,0,0,0,2.29-6.27H391Z" transform="translate(0 0)"/><path class="cls-1" d="M461.33,12.71H486a43.44,43.44,0,0,1,15.6,2.65,33.7,33.7,0,0,1,11.83,7.5,32.59,32.59,0,0,1,7.5,11.58,40.72,40.72,0,0,1,2.6,14.79,41,41,0,0,1-2.6,14.89,32.08,32.08,0,0,1-7.5,11.52,34,34,0,0,1-11.83,7.45A43.4,43.4,0,0,1,486,85.73H461.33Zm24.07,60A30.73,30.73,0,0,0,496,71a20.71,20.71,0,0,0,7.65-4.74,19.43,19.43,0,0,0,4.59-7.39,28.81,28.81,0,0,0,1.53-9.64,28.82,28.82,0,0,0-1.53-9.64,19.44,19.44,0,0,0-4.59-7.39A20.71,20.71,0,0,0,496,27.44a30.74,30.74,0,0,0-10.61-1.68H475.1V72.68Z" transform="translate(0 0)"/><path class="cls-1" d="M578.83,73.7a28,28,0,0,1-9.33,9.89,26,26,0,0,1-14.33,3.77,27.52,27.52,0,0,1-10.56-2,25.18,25.18,0,0,1-14-14,27.79,27.79,0,0,1-2-10.66,27.33,27.33,0,0,1,1.94-10.25A25.87,25.87,0,0,1,544.2,36.27a25.11,25.11,0,0,1,10.45-2.14,27.22,27.22,0,0,1,10.71,2,21.86,21.86,0,0,1,7.85,5.51A23.72,23.72,0,0,1,578,49.93a32.12,32.12,0,0,1,1.63,10.4v1.22a6.83,6.83,0,0,0-.1,1.12,5.71,5.71,0,0,0-.1,1.12H541.8a14,14,0,0,0,1.68,5.25,12.68,12.68,0,0,0,3.16,3.67,12.25,12.25,0,0,0,4.13,2.14,16.08,16.08,0,0,0,4.59.66,13,13,0,0,0,7.6-2.09,15.26,15.26,0,0,0,4.74-5.25ZM566.69,54.32a8.7,8.7,0,0,0-.87-3,10.45,10.45,0,0,0-2.24-3.06A11.78,11.78,0,0,0,559.91,46a13.58,13.58,0,0,0-5.25-.92,12.23,12.23,0,0,0-7.55,2.45,12.91,12.91,0,0,0-4.59,6.83Z" transform="translate(0 0)"/><path class="cls-1" d="M581.89,35.76h15.2l12.44,31.82h.71l12.54-31.82h15.09l-21.52,50H603.2Z" transform="translate(0 0)"/><path class="cls-1" d="M645.63,12.71h46.3V25.76H659.4V43.51h29.27V56.56H659.4V85.73H645.63Z" transform="translate(0 0)"/><path class="cls-1" d="M745.17,73.7a28,28,0,0,1-9.33,9.89,26,26,0,0,1-14.33,3.77,27.52,27.52,0,0,1-10.56-2,25.18,25.18,0,0,1-14-14,27.79,27.79,0,0,1-2-10.66,27.33,27.33,0,0,1,1.94-10.25,25.87,25.87,0,0,1,13.62-14.23A25.11,25.11,0,0,1,721,34.13a27.22,27.22,0,0,1,10.71,2,21.86,21.86,0,0,1,7.85,5.51,23.72,23.72,0,0,1,4.79,8.31A32.12,32.12,0,0,1,746,60.34v1.22a6.83,6.83,0,0,0-.1,1.12,5.71,5.71,0,0,0-.1,1.12H708.15a14,14,0,0,0,1.68,5.25A12.68,12.68,0,0,0,713,72.73a12.25,12.25,0,0,0,4.13,2.14,16.08,16.08,0,0,0,4.59.66,13,13,0,0,0,7.6-2.09,15.26,15.26,0,0,0,4.74-5.25ZM733,54.32a8.7,8.7,0,0,0-.87-3,10.45,10.45,0,0,0-2.24-3.06A11.78,11.78,0,0,0,726.25,46,13.58,13.58,0,0,0,721,45a12.23,12.23,0,0,0-7.55,2.45,12.91,12.91,0,0,0-4.59,6.83Z" transform="translate(0 0)"/><path class="cls-1" d="M774.85,87.36a28.59,28.59,0,0,1-8.72-1.22,24.06,24.06,0,0,1-6.63-3.21,21,21,0,0,1-4.74-4.59,22,22,0,0,1-3-5.25L763.73,68a12.88,12.88,0,0,0,4.64,5.76,11.63,11.63,0,0,0,6.48,1.89,11,11,0,0,0,5.81-1.33,3.76,3.76,0,0,0,2.14-3.16A3.91,3.91,0,0,0,781,67.83a18.51,18.51,0,0,0-6.17-2.29l-7-1.53A24.52,24.52,0,0,1,763,62.38a18.88,18.88,0,0,1-4.54-2.86,14.42,14.42,0,0,1-3.37-4.18,11.8,11.8,0,0,1-1.33-5.71,13.23,13.23,0,0,1,1.58-6.53,14.73,14.73,0,0,1,4.33-4.84,20.75,20.75,0,0,1,6.48-3.06,28.85,28.85,0,0,1,8-1.07,28.14,28.14,0,0,1,12.75,2.8,17.28,17.28,0,0,1,8.26,8.92l-11.53,4.69a8.85,8.85,0,0,0-4.18-4.28,12.61,12.61,0,0,0-5.51-1.33,10.25,10.25,0,0,0-5,1.17,3.44,3.44,0,0,0-2.14,3,3.08,3.08,0,0,0,1.79,2.75,20.65,20.65,0,0,0,4.84,1.84l7.65,1.84q7.65,1.84,11.37,5.86a13.59,13.59,0,0,1,3.72,9.54,13.35,13.35,0,0,1-1.53,6.22,16.66,16.66,0,0,1-4.33,5.25A21.25,21.25,0,0,1,783.57,86,27.17,27.17,0,0,1,774.85,87.36Z" transform="translate(0 0)"/><path class="cls-1" d="M809.32,47.18h-8.77V35.76h8.77V20.46h13.36v15.3h12.24V47.18H822.68v20a14.43,14.43,0,0,0,.36,3.31A5.37,5.37,0,0,0,824.42,73a5.05,5.05,0,0,0,4.08,1.68,7.42,7.42,0,0,0,4.69-1.33L837,85.12a22.14,22.14,0,0,1-5,1.68,29.48,29.48,0,0,1-6,.56,18.24,18.24,0,0,1-6.78-1.2,14.41,14.41,0,0,1-5-3.28q-4.8-4.69-4.79-13.33Z" transform="translate(0 0)"/><path class="cls-1" d="M247,162.88a19.55,19.55,0,0,1-7.25,15.86,27.69,27.69,0,0,1-17.86,5.88,26.4,26.4,0,0,1-16.49-5.46,27.91,27.91,0,0,1-9.87-14.92l9.24-3.78a23.87,23.87,0,0,0,2.63,6.09,19.74,19.74,0,0,0,3.94,4.67,17.83,17.83,0,0,0,5,3,15.28,15.28,0,0,0,5.78,1.1A16.61,16.61,0,0,0,232.92,172a11.12,11.12,0,0,0,4.2-9.09,10.86,10.86,0,0,0-3.47-8.09q-3.26-3.25-12.19-6.3-9-3.25-11.24-4.41-12-6.09-12-18a18.32,18.32,0,0,1,6.62-14.18,24.16,24.16,0,0,1,16.49-5.88,25.35,25.35,0,0,1,14.92,4.41,20.67,20.67,0,0,1,8.4,10.82l-9,3.78a13.37,13.37,0,0,0-5-7,16.15,16.15,0,0,0-18.65.37,9.18,9.18,0,0,0-3.89,7.67,8.88,8.88,0,0,0,3,6.72q3.36,2.84,14.6,6.72,11.45,3.89,16.34,9.51A20.32,20.32,0,0,1,247,162.88Z" transform="translate(0 0)"/><path class="cls-1" d="M280.09,184.63q-11.35,0-18.7-7.77T254,157.21q0-11.76,7.14-19.59a23.65,23.65,0,0,1,18.28-7.83q11.45,0,18.23,7.41t6.78,20.75l-.1,1H263.91a16.77,16.77,0,0,0,5,12.19,16.13,16.13,0,0,0,11.56,4.62q9.24,0,14.5-9.24l8.61,4.2A25.66,25.66,0,0,1,294,181,26.59,26.59,0,0,1,280.09,184.63ZM264.64,151h29.52a12.82,12.82,0,0,0-4.36-8.88q-3.94-3.52-10.56-3.52a14,14,0,0,0-9.4,3.36A16.06,16.06,0,0,0,264.64,151Z" transform="translate(0 0)"/><path class="cls-1" d="M333.35,129.79q10.72,0,16.91,5.73t6.2,15.71v31.73h-9.24v-7.14h-.42q-6,8.82-16,8.82a20.76,20.76,0,0,1-14.23-5A16.1,16.1,0,0,1,310.87,167a15.3,15.3,0,0,1,6-12.71q6-4.73,16.13-4.73,8.61,0,14.18,3.15v-2.21a11,11,0,0,0-4-8.56,13.7,13.7,0,0,0-9.35-3.52,14.81,14.81,0,0,0-12.82,6.83l-8.51-5.36Q319.58,129.79,333.35,129.79Zm-12.5,37.4a7.71,7.71,0,0,0,3.2,6.3,11.78,11.78,0,0,0,7.51,2.52,15.4,15.4,0,0,0,10.87-4.52,14.15,14.15,0,0,0,4.78-10.61q-4.52-3.57-12.61-3.57a16.37,16.37,0,0,0-9.82,2.84A8.42,8.42,0,0,0,320.85,167.19Z" transform="translate(0 0)"/><path class="cls-1" d="M406.25,168.66q0,6.72-5.88,11.35t-14.81,4.62a23.52,23.52,0,0,1-13.66-4,22.29,22.29,0,0,1-8.4-10.66l8.61-3.68a16,16,0,0,0,5.52,7.2,13.4,13.4,0,0,0,7.93,2.57,14,14,0,0,0,7.72-2q3.1-2,3.1-4.73,0-4.94-7.56-7.25L380,159.84q-15-3.78-15-14.5A13.39,13.39,0,0,1,370.69,134q5.72-4.26,14.65-4.25A23.83,23.83,0,0,1,397.69,133a17.7,17.7,0,0,1,7.72,8.72l-8.61,3.57a10.86,10.86,0,0,0-4.78-5.09,15,15,0,0,0-7.41-1.84,12.43,12.43,0,0,0-6.78,1.89q-3,1.89-3,4.62,0,4.41,8.3,6.3l7.77,2Q406.25,157,406.25,168.66Z" transform="translate(0 0)"/><path class="cls-1" d="M412.24,157.21q0-11.87,7.46-19.64a25.42,25.42,0,0,1,19-7.77q11.45,0,18.91,7.77t7.56,19.64q0,12-7.56,19.64t-18.91,7.77a25.42,25.42,0,0,1-19-7.77Q412.24,169.08,412.24,157.21Zm9.66,0q0,8.3,4.83,13.45a16.5,16.5,0,0,0,24,0q4.83-5.15,4.83-13.45t-4.83-13.34a16.28,16.28,0,0,0-24,0Q421.9,149,421.9,157.21Z" transform="translate(0 0)"/><path class="cls-1" d="M473,131.47h9.24v7.14h.42a17.19,17.19,0,0,1,6.78-6.3,19.42,19.42,0,0,1,9.51-2.52q9.45,0,14.55,5.41t5.1,15.39v32.36h-9.66V151.22q-.32-12.61-12.71-12.61a12.08,12.08,0,0,0-9.67,4.67,16.94,16.94,0,0,0-3.89,11.19v28.47H473Z" transform="translate(0 0)"/><path class="cls-1" d="M597.13,173.7v9.24h-45.8v-9.67l18.59-18.8a164.14,164.14,0,0,0,12.92-14.34,16.51,16.51,0,0,0,3.57-10,10.58,10.58,0,0,0-3.68-8.09,13.47,13.47,0,0,0-9.45-3.36,13,13,0,0,0-8.51,2.94,13.26,13.26,0,0,0-4.62,7.14l-8.82-3.57a23.05,23.05,0,0,1,22.17-15.76q9.77,0,16.28,6a19.2,19.2,0,0,1,6.51,14.71q0,10.4-11.45,22.48l-21,21.12Z" transform="translate(0 0)"/><path class="cls-1" d="M606.37,147q0-16.39,8.09-27t20.8-10.61q12.71,0,20.8,10.71T664.15,147q0,16.18-8.09,27-8.09,10.61-20.8,10.61T614.46,174Q606.37,163.2,606.37,147Zm47.9,0q0-12.39-5.25-20.38t-13.76-8q-8.61,0-13.76,8T616.25,147q0,12.4,5.25,20.49,5.15,7.88,13.76,7.88t13.76-8Q654.27,159.31,654.27,147Z" transform="translate(0 0)"/><path class="cls-1" d="M699.24,111.09v71.86h-9.67V123.07l-14,6.09L671.92,121,693,111.09Z" transform="translate(0 0)"/><path class="cls-1" d="M758.8,121l-34.88,63.66-8.61-4.41,33.3-59.88H712.26l.21-9.25H758.8Z" transform="translate(0 0)"/></svg>